<svg width="180" height="50" viewBox="0 0 180 50" fill="none" xmlns="http://www.w3.org/2000/svg">
<path d="M45.5906 39V38.6L46.4033 38.28C46.945 38.0933 47.2972 37.84 47.4597 37.52C47.6494 37.2 47.7442 36.7733 47.7442 36.24V15.36C47.7442 14.8267 47.6629 14.4 47.5004 14.08C47.3378 13.76 46.9721 13.5067 46.4033 13.32L45.5906 13V12.6H56.0334V13L55.2207 13.32C54.679 13.5067 54.3133 13.76 54.1236 14.08C53.9611 14.4 53.8798 14.8267 53.8798 15.36V36.24C53.8798 36.7733 53.9611 37.2 54.1236 37.52C54.3133 37.8133 54.679 38.0667 55.2207 38.28L56.0334 38.6V39H45.5906ZM57.7311 39V38.6L58.3 38.44C59.2481 38.1733 59.7222 37.52 59.7222 36.48V23.96C59.7222 23.3733 59.6273 22.9467 59.4377 22.68C59.2481 22.3867 58.8824 22.1867 58.3406 22.08L57.7311 21.92V21.52L64.6794 19.2L65.0858 19.6L65.4108 22C66.3589 21.1733 67.4289 20.4933 68.6209 19.96C69.8127 19.4267 70.9911 19.16 72.156 19.16C73.9438 19.16 75.3118 19.64 76.2599 20.6C77.2351 21.56 77.7227 23.0267 77.7227 25V36.52C77.7227 37.56 78.2374 38.2133 79.2668 38.48L79.6325 38.6V39H70.043V38.6L70.5713 38.44C71.5193 38.1467 71.9934 37.4933 71.9934 36.48V23.72C71.9934 22.0133 71.1265 21.16 69.3929 21.16C68.2009 21.16 66.9007 21.7467 65.4921 22.92V36.52C65.4921 37.56 65.9661 38.2133 66.9143 38.48L67.28 38.6V39H57.7311ZM88.7441 39.6C87.0105 39.6 85.656 39.1733 84.6808 38.32C83.7327 37.4667 83.2586 36.1067 83.2586 34.24V20.56H80.4549V20.16L81.4301 20C82.2699 19.8133 82.9878 19.5467 83.5837 19.2C84.2068 18.8533 84.8163 18.3867 85.4122 17.8L88.7441 14.16H89.1505L89.0286 19.76H93.5795V20.56H88.9879V34.96C88.9879 35.8933 89.1911 36.6 89.5974 37.08C90.0309 37.56 90.5726 37.8 91.2228 37.8C91.7916 37.8 92.2928 37.6667 92.7262 37.4C93.1596 37.1067 93.5931 36.72 94.0265 36.24L94.4328 36.64C93.891 37.5467 93.1461 38.2667 92.198 38.8C91.2499 39.3333 90.0986 39.6 88.7441 39.6ZM105.786 19.16C107.546 19.16 109.05 19.52 110.296 20.24C111.543 20.9333 112.49 21.8933 113.14 23.12C113.818 24.32 114.156 25.6933 114.156 27.24C114.156 27.5333 114.143 27.84 114.116 28.16C114.088 28.4533 114.034 28.72 113.953 28.96H101.844C101.872 31.84 102.386 33.92 103.388 35.2C104.418 36.4533 105.935 37.08 107.939 37.08C109.294 37.08 110.391 36.8667 111.231 36.44C112.071 36.0133 112.856 35.3867 113.587 34.56L113.994 34.92C113.154 36.3867 112.03 37.5333 110.621 38.36C109.24 39.1867 107.574 39.6 105.623 39.6C103.7 39.6 101.994 39.2 100.503 38.4C99.0135 37.5733 97.8486 36.4 97.0089 34.88C96.1692 33.36 95.7493 31.5467 95.7493 29.44C95.7493 27.2533 96.2369 25.4 97.2121 23.88C98.1873 22.3333 99.4333 21.16 100.95 20.36C102.495 19.56 104.107 19.16 105.786 19.16ZM105.664 19.96C104.879 19.96 104.201 20.2 103.632 20.68C103.091 21.1333 102.657 21.96 102.332 23.16C102.034 24.3333 101.872 26 101.844 28.16H108.793C109.064 25.2533 108.955 23.16 108.468 21.88C107.98 20.6 107.045 19.96 105.664 19.96ZM116.181 39V38.6L116.79 38.44C117.333 38.28 117.699 38.04 117.887 37.72C118.105 37.4 118.213 36.9867 118.213 36.48V23.96C118.213 23.3733 118.105 22.9467 117.887 22.68C117.699 22.3867 117.333 22.1867 116.79 22.08L116.181 21.92V21.52L123.17 19.2L123.576 19.6L123.942 23.04V23.36C124.322 22.6133 124.809 21.9333 125.405 21.32C126.028 20.68 126.705 20.16 127.436 19.76C128.195 19.36 128.94 19.16 129.671 19.16C130.701 19.16 131.486 19.44 132.028 20C132.57 20.56 132.841 21.2667 132.841 22.12C132.841 23.0267 132.57 23.7333 132.028 24.24C131.514 24.72 130.89 24.96 130.159 24.96C129.021 24.96 128.019 24.4 127.152 23.28L127.071 23.2C126.8 22.8267 126.489 22.6267 126.136 22.6C125.785 22.5467 125.459 22.7067 125.161 23.08C124.891 23.32 124.66 23.6133 124.47 23.96C124.308 24.28 124.145 24.6533 123.982 25.08V36.24C123.982 37.3067 124.457 37.9733 125.405 38.24L126.705 38.6V39H116.181ZM134.117 39V38.6L134.686 38.44C135.634 38.1733 136.108 37.52 136.108 36.48V23.96C136.108 23.3733 136.013 22.9467 135.824 22.68C135.634 22.3867 135.268 22.1867 134.727 22.08L134.117 21.92V21.52L141.066 19.2L141.472 19.6L141.797 22C142.745 21.1733 143.815 20.4933 145.007 19.96C146.199 19.4267 147.377 19.16 148.542 19.16C150.33 19.16 151.697 19.64 152.646 20.6C153.621 21.56 154.109 23.0267 154.109 25V36.52C154.109 37.56 154.623 38.2133 155.653 38.48L156.019 38.6V39H146.429V38.6L146.958 38.44C147.905 38.1467 148.38 37.4933 148.38 36.48V23.72C148.38 22.0133 147.512 21.16 145.779 21.16C144.587 21.16 143.286 21.7467 141.878 22.92V36.52C141.878 37.56 142.352 38.2133 143.301 38.48L143.666 38.6V39H134.117ZM167.889 39.6C165.83 39.6 164.042 39.1867 162.525 38.36C161.008 37.5067 159.829 36.3067 158.99 34.76C158.177 33.2133 157.771 31.4 157.771 29.32C157.771 27.24 158.204 25.44 159.071 23.92C159.965 22.4 161.17 21.2267 162.688 20.4C164.232 19.5733 165.965 19.16 167.889 19.16C169.812 19.16 171.532 19.5733 173.049 20.4C174.566 21.2 175.757 22.36 176.625 23.88C177.519 25.4 177.966 27.2133 177.966 29.32C177.966 31.4267 177.545 33.2533 176.706 34.8C175.894 36.32 174.728 37.5067 173.212 38.36C171.722 39.1867 169.947 39.6 167.889 39.6ZM167.889 38.8C168.837 38.8 169.595 38.5333 170.164 38C170.733 37.4667 171.139 36.52 171.383 35.16C171.653 33.8 171.79 31.88 171.79 29.4C171.79 26.8933 171.653 24.96 171.383 23.6C171.139 22.24 170.733 21.2933 170.164 20.76C169.595 20.2267 168.837 19.96 167.889 19.96C166.94 19.96 166.168 20.2267 165.573 20.76C165.004 21.2933 164.583 22.24 164.313 23.6C164.069 24.96 163.947 26.8933 163.947 29.4C163.947 31.88 164.069 33.8 164.313 35.16C164.583 36.52 165.004 37.4667 165.573 38C166.168 38.5333 166.94 38.8 167.889 38.8Z" fill="#292F36"/>
<path d="M0 42.0003H13.6719V32.499C13.6719 30.4853 15.3287 28.8543 17.3743 28.8543C19.4199 28.8543 21.0767 30.4853 21.0767 32.499V42.0003H34.5358V8C15.4621 8 0 23.2211 0 42.0003Z" fill="#CDA274"/>
</svg>
